<svg width="358" height="63" viewBox="0 0 358 63" fill="none" xmlns="http://www.w3.org/2000/svg">
<rect width="358" height="63" fill="black"/>
<path d="M129.7 39V21.5391H133.38V35.9531H140.868V39H129.7ZM153.604 39.2344C152.057 39.2344 150.666 38.8828 149.432 38.1797C148.198 37.4766 147.221 36.457 146.502 35.1211C145.784 33.7852 145.424 32.1719 145.424 30.2812C145.424 28.375 145.784 26.7539 146.502 25.418C147.221 24.082 148.198 23.0625 149.432 22.3594C150.666 21.6562 152.057 21.3047 153.604 21.3047C155.151 21.3047 156.538 21.6562 157.764 22.3594C158.998 23.0625 159.975 24.082 160.694 25.418C161.413 26.7539 161.772 28.375 161.772 30.2812C161.772 32.1875 161.413 33.8086 160.694 35.1445C159.975 36.4727 158.998 37.4883 157.764 38.1914C156.538 38.8867 155.151 39.2344 153.604 39.2344ZM149.163 30.2812C149.163 32.125 149.565 33.5352 150.37 34.5117C151.182 35.4883 152.26 35.9766 153.604 35.9766C154.94 35.9766 156.01 35.4883 156.815 34.5117C157.627 33.5352 158.034 32.125 158.034 30.2812C158.034 28.4297 157.627 27.0156 156.815 26.0391C156.01 25.0547 154.94 24.5625 153.604 24.5625C152.26 24.5625 151.182 25.0547 150.37 26.0391C149.565 27.0156 149.163 28.4297 149.163 30.2812ZM174.836 39.2344C173.203 39.2344 171.766 38.875 170.523 38.1562C169.289 37.4297 168.324 36.3984 167.629 35.0625C166.941 33.7188 166.598 32.1289 166.598 30.293C166.598 28.4023 166.957 26.7891 167.676 25.4531C168.395 24.1094 169.371 23.082 170.605 22.3711C171.84 21.6602 173.227 21.3047 174.766 21.3047C176.086 21.3047 177.277 21.5547 178.34 22.0547C179.41 22.5547 180.285 23.2461 180.965 24.1289C181.652 25.0117 182.074 26.0312 182.23 27.1875H178.492C178.25 26.3672 177.816 25.7266 177.191 25.2656C176.566 24.7969 175.777 24.5625 174.824 24.5625C173.488 24.5625 172.406 25.0586 171.578 26.0508C170.75 27.0352 170.336 28.4375 170.336 30.2578C170.336 32.0781 170.742 33.4883 171.555 34.4883C172.375 35.4805 173.48 35.9766 174.871 35.9766C176.09 35.9766 177.047 35.6602 177.742 35.0273C178.445 34.3867 178.809 33.5234 178.832 32.4375H175.094V29.6602H182.406V31.8633C182.406 33.3945 182.082 34.7109 181.434 35.8125C180.785 36.9141 179.891 37.7617 178.75 38.3555C177.609 38.9414 176.305 39.2344 174.836 39.2344ZM191.252 21.5391V39H187.572V21.5391H191.252ZM211.3 21.5391V39H208.101L200.519 28.0195H200.378V39H196.698V21.5391H199.933L207.468 32.5195H207.62V21.5391H211.3Z" fill="white"/>
</svg>
