<svg width="77" height="77" viewBox="0 0 77 77" fill="none" xmlns="http://www.w3.org/2000/svg">
<path d="M70.475 3.20831H7.13652C4.96703 3.20831 3.20831 4.96703 3.20831 7.13652V70.475C3.20831 72.6445 4.96703 74.4032 7.13652 74.4032H70.475C72.6445 74.4032 74.4032 72.6445 74.4032 70.475V7.13652C74.4032 4.96703 72.6445 3.20831 70.475 3.20831Z" fill="white"/>
<path d="M69.9593 32.2165H67.375V32.0834H38.5V44.9167H56.6319C53.9866 52.3873 46.8786 57.75 38.5 57.75C27.8692 57.75 19.25 49.1308 19.25 38.5C19.25 27.8692 27.8692 19.25 38.5 19.25C43.4072 19.25 47.8716 21.1012 51.2708 24.1251L60.3456 15.0503C54.6155 9.71004 46.9508 6.41669 38.5 6.41669C20.782 6.41669 6.41669 20.782 6.41669 38.5C6.41669 56.218 20.782 70.5834 38.5 70.5834C56.218 70.5834 70.5834 56.218 70.5834 38.5C70.5834 36.3488 70.362 34.249 69.9593 32.2165Z" fill="#FFC107"/>
<path d="M10.1158 23.5668L20.6568 31.2973C23.509 24.2358 30.4166 19.25 38.5 19.25C43.4071 19.25 47.8715 21.1012 51.2707 24.1251L60.3455 15.0503C54.6154 9.71004 46.9507 6.41669 38.5 6.41669C26.1768 6.41669 15.4898 13.374 10.1158 23.5668Z" fill="#FF3D00"/>
<path d="M38.5 70.5833C46.7871 70.5833 54.3171 67.4119 60.0103 62.2545L50.0805 53.8519C46.7517 56.3849 42.683 57.7545 38.5 57.75C30.1551 57.75 23.0695 52.429 20.4002 45.0033L9.93781 53.0642C15.2476 63.4544 26.0308 70.5833 38.5 70.5833Z" fill="#4CAF50"/>
<path d="M69.9593 32.2165H67.375V32.0833H38.5V44.9166H56.6319C55.3665 48.4721 53.0873 51.579 50.0757 53.8535L50.0805 53.8503L60.0103 62.2529C59.3076 62.8913 70.5833 54.5416 70.5833 38.5C70.5833 36.3488 70.362 34.2489 69.9593 32.2165Z" fill="#1976D2"/>
</svg>
