<svg width="30" height="33" viewBox="0 0 30 33" fill="none" xmlns="http://www.w3.org/2000/svg">
<path d="M14.7875 24.8922C13.807 24.8922 12.8667 24.5644 12.1734 23.9808C11.4801 23.3973 11.0906 22.6059 11.0906 21.7807C11.0906 20.0538 12.7357 18.6691 14.7875 18.6691C15.768 18.6691 16.7083 18.997 17.4016 19.5805C18.0949 20.164 18.4844 20.9554 18.4844 21.7807C18.4844 22.6059 18.0949 23.3973 17.4016 23.9808C16.7083 24.5644 15.768 24.8922 14.7875 24.8922ZM25.8781 29.5595V14.0019H3.69688V29.5595H25.8781ZM25.8781 10.8903C26.8586 10.8903 27.7989 11.2182 28.4922 11.8017C29.1855 12.3852 29.575 13.1766 29.575 14.0019V29.5595C29.575 30.3847 29.1855 31.1761 28.4922 31.7597C27.7989 32.3432 26.8586 32.671 25.8781 32.671H3.69688C2.7164 32.671 1.77609 32.3432 1.08279 31.7597C0.389491 31.1761 0 30.3847 0 29.5595V14.0019C0 12.275 1.64511 10.8903 3.69688 10.8903H5.54531V7.77881C5.54531 5.71574 6.51904 3.73717 8.25229 2.27836C9.98553 0.819551 12.3363 0 14.7875 0C16.0012 0 17.203 0.201205 18.3243 0.592127C19.4456 0.983048 20.4645 1.55603 21.3227 2.27836C22.1809 3.00069 22.8617 3.85822 23.3262 4.80199C23.7906 5.74576 24.0297 6.75728 24.0297 7.77881V10.8903H25.8781ZM14.7875 3.11152C13.3168 3.11152 11.9063 3.60325 10.8664 4.47854C9.82642 5.35383 9.24219 6.54097 9.24219 7.77881V10.8903H20.3328V7.77881C20.3328 6.54097 19.7486 5.35383 18.7086 4.47854C17.6687 3.60325 16.2582 3.11152 14.7875 3.11152Z" fill="#D4D4D4"/>
</svg>
