<svg width="34" height="38" viewBox="0 0 34 38" fill="none" xmlns="http://www.w3.org/2000/svg">
<path d="M16.9 0C19.1411 0 21.2904 0.999323 22.8751 2.77813C24.4597 4.55694 25.35 6.96952 25.35 9.48513C25.35 12.0007 24.4597 14.4133 22.8751 16.1921C21.2904 17.9709 19.1411 18.9703 16.9 18.9703C14.6589 18.9703 12.5096 17.9709 10.9249 16.1921C9.34026 14.4133 8.45 12.0007 8.45 9.48513C8.45 6.96952 9.34026 4.55694 10.9249 2.77813C12.5096 0.999323 14.6589 0 16.9 0ZM16.9 4.74257C15.7795 4.74257 14.7048 5.24223 13.9125 6.13163C13.1201 7.02103 12.675 8.22732 12.675 9.48513C12.675 10.7429 13.1201 11.9492 13.9125 12.8386C14.7048 13.728 15.7795 14.2277 16.9 14.2277C18.0205 14.2277 19.0952 13.728 19.8875 12.8386C20.6799 11.9492 21.125 10.7429 21.125 9.48513C21.125 8.22732 20.6799 7.02103 19.8875 6.13163C19.0952 5.24223 18.0205 4.74257 16.9 4.74257ZM16.9 21.3415C22.5404 21.3415 33.8 24.4953 33.8 30.8267V37.9405H0V30.8267C0 24.4953 11.2596 21.3415 16.9 21.3415ZM16.9 25.847C10.6259 25.847 4.01375 29.3091 4.01375 30.8267V33.4351H29.7863V30.8267C29.7863 29.3091 23.1741 25.847 16.9 25.847Z" fill="#D4D4D4"/>
</svg>
