<svg width="14" height="16" viewBox="0 0 14 16" fill="none" xmlns="http://www.w3.org/2000/svg">
<path d="M7 15.1953C5.71094 15.1953 4.55208 14.9023 3.52344 14.3164C2.49479 13.7305 1.68099 12.8809 1.08203 11.7676C0.483073 10.6543 0.183594 9.3099 0.183594 7.73438C0.183594 6.14583 0.483073 4.79492 1.08203 3.68164C1.68099 2.56836 2.49479 1.71875 3.52344 1.13281C4.55208 0.546875 5.71094 0.253906 7 0.253906C8.28906 0.253906 9.44466 0.546875 10.4668 1.13281C11.4954 1.71875 12.3092 2.56836 12.9082 3.68164C13.5072 4.79492 13.8066 6.14583 13.8066 7.73438C13.8066 9.32292 13.5072 10.6738 12.9082 11.7871C12.3092 12.8939 11.4954 13.7402 10.4668 14.3262C9.44466 14.9056 8.28906 15.1953 7 15.1953ZM3.29883 7.73438C3.29883 9.27083 3.63411 10.446 4.30469 11.2598C4.98177 12.0736 5.88021 12.4805 7 12.4805C8.11328 12.4805 9.00521 12.0736 9.67578 11.2598C10.3529 10.446 10.6914 9.27083 10.6914 7.73438C10.6914 6.19141 10.3529 5.01302 9.67578 4.19922C9.00521 3.37891 8.11328 2.96875 7 2.96875C5.88021 2.96875 4.98177 3.37891 4.30469 4.19922C3.63411 5.01302 3.29883 6.19141 3.29883 7.73438Z" fill="black"/>
</svg>
