<svg width="32" height="36" viewBox="0 0 32 36" fill="none" xmlns="http://www.w3.org/2000/svg">
<path d="M16 0C18.1217 0 20.1566 0.948211 21.6569 2.63604C23.1571 4.32387 24 6.61305 24 9C24 11.3869 23.1571 13.6761 21.6569 15.364C20.1566 17.0518 18.1217 18 16 18C13.8783 18 11.8434 17.0518 10.3431 15.364C8.84285 13.6761 8 11.3869 8 9C8 6.61305 8.84285 4.32387 10.3431 2.63604C11.8434 0.948211 13.8783 0 16 0ZM16 4.5C14.9391 4.5 13.9217 4.97411 13.1716 5.81802C12.4214 6.66193 12 7.80653 12 9C12 10.1935 12.4214 11.3381 13.1716 12.182C13.9217 13.0259 14.9391 13.5 16 13.5C17.0609 13.5 18.0783 13.0259 18.8284 12.182C19.5786 11.3381 20 10.1935 20 9C20 7.80653 19.5786 6.66193 18.8284 5.81802C18.0783 4.97411 17.0609 4.5 16 4.5ZM16 20.25C21.34 20.25 32 23.2425 32 29.25V36H0V29.25C0 23.2425 10.66 20.25 16 20.25ZM16 24.525C10.06 24.525 3.8 27.81 3.8 29.25V31.725H28.2V29.25C28.2 27.81 21.94 24.525 16 24.525Z" fill="black"/>
</svg>
