<svg width="78" height="78" viewBox="0 0 78 78" fill="none" xmlns="http://www.w3.org/2000/svg">
<path d="M71.0835 2.9433H6.92246C4.72479 2.9433 2.94324 4.72486 2.94324 6.92252V71.0836C2.94324 73.2813 4.72479 75.0628 6.92246 75.0628H71.0835C73.2812 75.0628 75.0628 73.2813 75.0628 71.0836V6.92252C75.0628 4.72486 73.2812 2.9433 71.0835 2.9433Z" fill="#3D5A98"/>
<path d="M52.6987 75.0567V47.129H62.0709L63.4725 36.2456H52.6987V29.2987C52.6987 26.1483 53.5762 23.9972 58.0917 23.9972H63.8564V14.2472C61.0649 13.9568 58.2597 13.8184 55.4531 13.8328C47.1534 13.8328 41.4375 18.8906 41.4375 28.2201V36.2456H32.0653V47.129H41.4375V75.0567H52.6987Z" fill="white"/>
</svg>
