<svg width="76" height="71" viewBox="0 0 76 71" fill="none" xmlns="http://www.w3.org/2000/svg">
<path d="M53.1803 50.7504L39.6866 48.3975L34.4437 36.1518L42.6946 26.259L56.1872 28.6096L61.4301 40.8553L53.1803 50.7504Z" stroke="white" stroke-width="6" stroke-linejoin="round"/>
<path d="M34.4688 36.2868L20.9785 33.9354L15.7357 21.6897L23.9831 11.7954L37.4768 14.1483L42.7196 26.394L34.4688 36.2868Z" stroke="white" stroke-width="6" stroke-linejoin="round"/>
<path d="M31.3822 58.3116L17.8862 55.9595L12.6433 43.7138L20.8965 33.8202L34.3868 36.1716L39.6297 48.4173L31.3822 58.3116Z" stroke="white" stroke-width="6" stroke-linejoin="round"/>
<path d="M31.4362 58.221L35.1152 66.8141M20.2591 45.0251L22.7958 50.9499M25.6037 18.6631L32.714 20.2269M45.3789 33.5797L41.8293 37.7531M37.3398 13.9111L45.0785 3.91131M61.2278 40.8031L71.0456 42.0475M15.2079 21.7052L3.6211 19.1058" stroke="white" stroke-width="6" stroke-linecap="round" stroke-linejoin="round"/>
</svg>
