<svg width="138" height="136" viewBox="0 0 138 136" fill="none" xmlns="http://www.w3.org/2000/svg">
<path d="M54.9613 64.0647L58.1261 76.2888L48.3196 85.1726L35.3483 81.8323L32.1816 69.61L41.9881 60.7262L54.9613 64.0647Z" stroke="white" stroke-width="6" stroke-linejoin="round"/>
<path d="M48.4409 85.1022L51.6058 97.3229L41.7993 106.207L28.8279 102.87L25.663 90.6458L35.4696 81.762L48.4409 85.1022Z" stroke="white" stroke-width="6" stroke-linejoin="round"/>
<path d="M71.1398 79.6664L74.3064 91.8921L64.4999 100.776L51.5268 97.434L48.3619 85.2133L58.1684 76.3295L71.1398 79.6664Z" stroke="white" stroke-width="6" stroke-linejoin="round"/>
<path d="M71.0299 79.654L77.9113 73.4201M62.6975 93.8828L67.4421 89.5846M34.8613 98.9992L33.5091 92.4397M41.3927 76.9004L46.8927 78.3676M25.4875 90.8477L12.619 87.9778M42.0191 60.9156L39.2611 52.1921M42.0278 106.646L44.1815 117.353" stroke="white" stroke-width="6" stroke-linecap="round" stroke-linejoin="round"/>
<path d="M96.7718 29.1959L107.425 37.8482L105.205 50.8952L92.3307 55.2899L81.6766 46.6401L83.8972 33.5931L96.7718 29.1959Z" stroke="white" stroke-width="6" stroke-linejoin="round"/>
<path d="M105.258 50.7675L115.91 59.4168L113.689 72.4638L100.817 76.8615L90.1638 68.2092L92.3843 55.1622L105.258 50.7675Z" stroke="white" stroke-width="6" stroke-linejoin="round"/>
<path d="M120.359 33.4617L131.015 42.1144L128.795 55.1614L115.918 59.5556L105.267 50.9063L107.487 37.8593L120.359 33.4617Z" stroke="white" stroke-width="6" stroke-linejoin="round"/>
<path d="M120.26 33.5125L121.819 24.3572M122.773 50.2923L123.847 43.9798M103.234 70.1939L97.8019 65.3578M94.0575 47.7116L99.5498 45.8915M90.1522 68.4793L77.6724 73.2175M84.0474 33.7373L76.0336 27.8416M114.167 72.7103L122.99 80.6347" stroke="white" stroke-width="6" stroke-linecap="round" stroke-linejoin="round"/>
</svg>
