<svg width="205" height="205" viewBox="0 0 205 205" fill="none" xmlns="http://www.w3.org/2000/svg">
<path d="M178.404 108.715L165.964 114.447L154.691 107.35L155.859 94.5216L168.297 88.7882L179.57 95.8851L178.404 108.715Z" stroke="white" stroke-width="6" stroke-linejoin="round"/>
<path d="M154.788 107.447L142.352 113.179L131.079 106.082L132.242 93.2535L144.683 87.5215L155.955 94.6184L154.788 107.447Z" stroke="white" stroke-width="6" stroke-linejoin="round"/>
<path d="M164.765 127.324L152.324 133.058L141.051 125.961L142.219 113.13L154.656 107.399L165.929 114.496L164.765 127.324Z" stroke="white" stroke-width="6" stroke-linejoin="round"/>
<path d="M164.758 127.219L172.668 132.199M148.062 122.713L153.516 126.146M137.479 97.9836L144.218 95.2297M162.228 99.0199L161.678 104.471M144.436 87.4042L145.121 74.7782M179.373 95.9571L188.159 91.4019M130.654 106.394L119.642 110.84" stroke="white" stroke-width="6" stroke-linecap="round" stroke-linejoin="round"/>
<path d="M84.1028 107.528L94.926 114.032L94.1539 127.241L82.5587 133.947L71.7354 127.445L72.5075 114.236L84.1028 107.528Z" stroke="white" stroke-width="6" stroke-linejoin="round"/>
<path d="M94.1917 127.106L105.013 133.608L104.241 146.817L92.6476 153.525L81.8244 147.021L82.5965 133.812L94.1917 127.106Z" stroke="white" stroke-width="6" stroke-linejoin="round"/>
<path d="M106.578 107.323L117.404 113.827L116.631 127.037L105.034 133.742L94.213 127.241L94.985 114.031L106.578 107.323Z" stroke="white" stroke-width="6" stroke-linejoin="round"/>
<path d="M106.491 107.391L107.032 98.1219M110.516 123.382L110.889 116.99M94.24 146.536L88.6791 142.804M83.4158 126.193L88.368 123.386M81.8404 147.288L70.6482 154.257M72.6625 114.349L64.5824 110.058M104.711 146.97L113.75 153.101" stroke="white" stroke-width="6" stroke-linecap="round" stroke-linejoin="round"/>
<path d="M89.5014 53.3539L103.165 52.0623L110.722 62.9269L104.616 75.0831L90.9541 76.3768L83.3966 65.5122L89.5014 53.3539Z" stroke="white" stroke-width="6" stroke-linejoin="round"/>
<path d="M110.671 62.7983L124.331 61.5061L131.889 72.3707L125.786 84.5275L112.123 85.8191L104.565 74.9545L110.671 62.7983Z" stroke="white" stroke-width="6" stroke-linejoin="round"/>
<path d="M109.32 39.8702L122.985 38.5771L130.543 49.4417L124.434 61.5994L110.774 62.8916L103.217 52.027L109.32 39.8702Z" stroke="white" stroke-width="6" stroke-linejoin="round"/>
<path d="M109.285 39.9757L103.982 32.3518M122.835 50.1875L119.178 44.9309M122.839 78.0772L115.575 78.4328M100.539 68.4663L103.182 63.3193M112.304 86.0199L106.72 98.1448M83.6053 65.5098L73.7567 66.9184M132.402 72.2123L144.25 71.684" stroke="white" stroke-width="6" stroke-linecap="round" stroke-linejoin="round"/>
</svg>
