<svg width="144" height="147" viewBox="0 0 144 147" fill="none" xmlns="http://www.w3.org/2000/svg">
<path d="M121.412 130.988L108.52 126.361L105.449 113.399L115.271 105.063L128.163 109.688L131.233 122.65L121.412 130.988Z" stroke="#D4D4D4" stroke-width="6" stroke-linejoin="round"/>
<path d="M105.451 113.536L92.5618 108.911L89.4914 95.9489L99.3102 87.6116L112.202 92.2385L115.273 105.201L105.451 113.536Z" stroke="#D4D4D4" stroke-width="6" stroke-linejoin="round"/>
<path d="M98.6414 134.708L85.7468 130.081L82.6764 117.119L92.5007 108.784L105.39 113.408L108.46 126.371L98.6414 134.708Z" stroke="#D4D4D4" stroke-width="6" stroke-linejoin="round"/>
<path d="M98.7101 134.628L100.865 143.724M89.9556 119.714L91.4411 125.986M99.7318 94.6553L106.47 97.4126M116.663 112.735L112.452 116.24M112.108 91.9814L121.444 83.4532M131.043 122.564L140.503 125.47M88.9688 95.8738L77.9977 91.3304" stroke="#D4D4D4" stroke-width="6" stroke-linecap="round" stroke-linejoin="round"/>
<path d="M54.9613 64.0647L58.1261 76.2888L48.3196 85.1726L35.3483 81.8323L32.1816 69.61L41.9881 60.7262L54.9613 64.0647Z" stroke="#D4D4D4" stroke-width="6" stroke-linejoin="round"/>
<path d="M48.4409 85.1022L51.6058 97.3229L41.7993 106.207L28.8279 102.87L25.663 90.6458L35.4696 81.762L48.4409 85.1022Z" stroke="#D4D4D4" stroke-width="6" stroke-linejoin="round"/>
<path d="M71.1398 79.6664L74.3064 91.8921L64.4999 100.776L51.5268 97.434L48.3619 85.2133L58.1684 76.3295L71.1398 79.6664Z" stroke="#D4D4D4" stroke-width="6" stroke-linejoin="round"/>
<path d="M71.0299 79.654L77.9113 73.4201M62.6975 93.8828L67.4421 89.5846M34.8613 98.9992L33.5091 92.4397M41.3927 76.9004L46.8927 78.3676M25.4875 90.8477L12.619 87.9778M42.0191 60.9156L39.2611 52.1921M42.0278 106.646L44.1815 117.353" stroke="#D4D4D4" stroke-width="6" stroke-linecap="round" stroke-linejoin="round"/>
<path d="M96.7718 29.1959L107.425 37.8482L105.205 50.8952L92.3307 55.2899L81.6766 46.6401L83.8972 33.5931L96.7718 29.1959Z" stroke="#D4D4D4" stroke-width="6" stroke-linejoin="round"/>
<path d="M105.258 50.7675L115.91 59.4168L113.689 72.4638L100.817 76.8615L90.1638 68.2092L92.3843 55.1622L105.258 50.7675Z" stroke="#D4D4D4" stroke-width="6" stroke-linejoin="round"/>
<path d="M120.359 33.4617L131.015 42.1144L128.795 55.1614L115.918 59.5556L105.267 50.9063L107.487 37.8593L120.359 33.4617Z" stroke="#D4D4D4" stroke-width="6" stroke-linejoin="round"/>
<path d="M120.26 33.5125L121.819 24.3572M122.773 50.2923L123.847 43.9798M103.234 70.1939L97.8019 65.3578M94.0575 47.7116L99.5498 45.8915M90.1522 68.4793L77.6724 73.2175M84.0474 33.7373L76.0336 27.8416M114.167 72.7103L122.99 80.6347" stroke="#D4D4D4" stroke-width="6" stroke-linecap="round" stroke-linejoin="round"/>
</svg>
