<svg width="28" height="31" viewBox="0 0 28 31" fill="none" xmlns="http://www.w3.org/2000/svg">
<path d="M14 23.619C13.0717 23.619 12.1815 23.308 11.5251 22.7543C10.8687 22.2006 10.5 21.4497 10.5 20.6667C10.5 19.0281 12.0575 17.7143 14 17.7143C14.9283 17.7143 15.8185 18.0253 16.4749 18.579C17.1313 19.1327 17.5 19.8836 17.5 20.6667C17.5 21.4497 17.1313 22.2006 16.4749 22.7543C15.8185 23.308 14.9283 23.619 14 23.619ZM24.5 28.0476V13.2857H3.5V28.0476H24.5ZM24.5 10.3333C25.4283 10.3333 26.3185 10.6444 26.9749 11.1981C27.6313 11.7517 28 12.5027 28 13.2857V28.0476C28 28.8306 27.6313 29.5816 26.9749 30.1353C26.3185 30.6889 25.4283 31 24.5 31H3.5C2.57174 31 1.6815 30.6889 1.02513 30.1353C0.368749 29.5816 0 28.8306 0 28.0476V13.2857C0 11.6471 1.5575 10.3333 3.5 10.3333H5.25V7.38095C5.25 5.4234 6.17187 3.54603 7.81282 2.16183C9.45376 0.777634 11.6794 0 14 0C15.1491 0 16.2869 0.190914 17.3485 0.561842C18.4101 0.932769 19.3747 1.47645 20.1872 2.16183C20.9997 2.84722 21.6442 3.66089 22.0839 4.55638C22.5237 5.45188 22.75 6.41167 22.75 7.38095V10.3333H24.5ZM14 2.95238C12.6076 2.95238 11.2723 3.41896 10.2877 4.24948C9.30312 5.08 8.75 6.20642 8.75 7.38095V10.3333H19.25V7.38095C19.25 6.20642 18.6969 5.08 17.7123 4.24948C16.7277 3.41896 15.3924 2.95238 14 2.95238Z" fill="black"/>
</svg>
